# xmcd
#
# Track frame offsets:
#	150
#	34067
#	49428
#	60328
#	186462
#	211939
#	251818
#	283560
#	311876
#
# Disc length: 4540 seconds
#
# Revision: 1
# Processed by: cddbd v1.5.2PL0 Copyright (c) Steve Scherf et al.
# Submitted via: audiograbber 1.83.01
#
DISCID=8a11ba09
DTITLE=Grateful Dead - 72-12-10 Winterland Arena, San Francisco CA
DYEAR=1900
DGENRE=
TTITLE0=Truckin'
TTITLE1=Jam
TTITLE2=Drums
TTITLE3=The Other One
TTITLE4=Deal
TTITLE5=Sugar Magnolia
TTITLE6=Ramble On Rose
TTITLE7=Johnny B Goode
TTITLE8=Uncle John's Band
EXTD=
EXTT0=
EXTT1=
EXTT2=
EXTT3=
EXTT4=
EXTT5=
EXTT6=
EXTT7=
EXTT8=
PLAYORDER=
